<svg id="visual" viewBox="0 0 900 600" width="900" height="600" xmlns="http://www.w3.org/2000/svg" xmlns:xlink="http://www.w3.org/1999/xlink" version="1.1"><rect x="0" y="0" width="900" height="600" fill="#000000"></rect><defs><linearGradient id="grad1_0" x1="33.3%" y1="0%" x2="100%" y2="100%"><stop offset="20%" stop-color="#000000" stop-opacity="1"></stop><stop offset="80%" stop-color="#000000" stop-opacity="1"></stop></linearGradient></defs><defs><linearGradient id="grad2_0" x1="0%" y1="0%" x2="66.7%" y2="100%"><stop offset="20%" stop-color="#000000" stop-opacity="1"></stop><stop offset="80%" stop-color="#000000" stop-opacity="1"></stop></linearGradient></defs><g transform="translate(900, 0)"><path d="M0 189.3C-12.1 174 -24.1 158.7 -42.4 158.4C-60.7 158.1 -85.3 172.9 -94.6 163.9C-104 155 -98.3 122.4 -108.2 108.2C-118.1 94 -143.6 98.1 -156.8 90.5C-169.9 82.9 -170.5 63.6 -173.9 46.6C-177.2 29.6 -183.3 14.8 -189.3 0L0 0Z" fill="#ffffff"></path></g><g transform="translate(0, 600)"><path d="M0 -189.3C16.6 -188.2 33.1 -187 49 -182.8C64.8 -178.7 80 -171.4 93.5 -161.9C107 -152.5 118.9 -140.8 127.3 -127.3C135.7 -113.7 140.6 -98.4 146.4 -84.5C152.1 -70.6 158.8 -58.3 166.1 -44.5C173.4 -30.7 181.4 -15.3 189.3 0L0 0Z" fill="#ffffff"></path></g></svg>